<svg width="355" height="745" viewBox="0 0 355 745" fill="none" xmlns="http://www.w3.org/2000/svg">
<path d="M205.675 53.0235C212.905 23.3536 224.421 8.77514 231.826 2.10247C235.545 -1.24963 240.883 0.343212 243.453 4.64053L578.126 564.207C580.961 568.947 579.46 575.159 574.72 577.994L315.384 733.102C314.269 733.769 313.228 734.184 311.943 734.369C287.848 737.84 23.2561 773.883 3.28993 685.85C-17.6304 593.611 76.9872 543.412 12.2264 435.134C-20.4657 380.473 24.9281 333.344 56.9672 304.866C83.5786 281.212 174.989 240.153 188.901 206.43C210.885 153.142 192.107 108.7 205.675 53.0235Z" fill="url(#paint0_linear_73_3417)" fill-opacity="0.8"/>
<defs>
<linearGradient id="paint0_linear_73_3417" x1="-166.215" y1="340.686" x2="215.493" y2="263.669" gradientUnits="userSpaceOnUse">
<stop offset="0.00612331" stop-opacity="0.3"/>
<stop offset="1" stop-color="#0F56B3" stop-opacity="0.3"/>
</linearGradient>
</defs>
</svg>